<svg id="Layer_1" xmlns="http://www.w3.org/2000/svg" viewBox="0 0 512 512"><style>.st0{fill:#c1272d}.st1{fill:#efcca3}.st2{fill:#ed1c24}.st3{fill:#ccac8d}.st4{fill:#fff}.st5{fill:#ff931e}.st6{fill:#ffb81e}.st7{fill:#56332b}.st8{fill:#442823}.st9{fill:#7f4a41}.st10{fill:#331712}.st11{fill:#fc6}.st12{fill:#ccc}.st13{fill:#b3b3b3}.st14{fill:#989898}.st15{fill:#323232}.st16{fill:#1e1e1e}.st17{fill:#4c4c4c}.st18{fill:#e6e6e6}.st19{fill:#606060}</style><path class="st0" d="M363.7 394.6c-68.5 35.1-143.8 35.1-212.4 0-6.3-3.2-11.3-13.5-11.3-22.4v-22.9c0-9 5.1-13.3 11.3-10.1 68.5 35.1 143.8 35.1 212.4 0 6.3-3.2 11.3 1.2 11.3 10.1v22.9c0 8.9-5 19.2-11.3 22.4z"/><path class="st1" d="M429.7 196.5c-1-17.5.9-33.1-6.8-46.5-19-33-66.9-52-163.9-52v1h-1.1 1.1v-1c-94 0-146 19.3-165 52.3-7.7 13.4-6.6 28.9-7.6 46.4-.8 13.9-7 29-4.5 45 3.3 20.8 4.6 41.5 7.8 60.8 2.5 15.7 23.6 28.7 25.6 43.7 5.5 40.8 46.7 59.5 143.7 59.5v.4h-1.3 1.3v-.4c98 0 137.1-18.7 142.6-59.5 2-15 22.2-28 24.8-43.7 3.1-19.3 4.4-40 7.7-60.8 2.5-16.2-3.6-31.3-4.4-45.2z"/><path class="st2" d="M363.7 414.9c-68.5 25.3-143.8 25.3-212.4 0-6.3-2.3-11.3-9.7-11.3-16.2v-16.5c0-6.5 5.1-9.6 11.3-7.3 68.5 25.3 143.8 25.3 212.4 0 6.3-2.3 11.3.8 11.3 7.3v16.5c0 6.4-5 13.8-11.3 16.2z"/><circle class="st0" cx="257.5" cy="423.4" r="9.7"/><path class="st3" d="M257.9 210c17.4.2 29.4 11.7 40.7 21.7 13.1 11.6 35.9 19.8 45.1 29.7 9.2 9.9 21.2 20.3 25.7 35.9 4.5 15.6 5.8 35.7 5.8 40.8 0 5.2 3 4 10.9 0 18.7-9.4 39.7-34 39.7-34-2.5 15.7-22.7 28.5-24.7 43.5-5.5 40.8-45.2 59.3-143.1 59.3H257.4h1.5"/><path class="st3" d="M321.4 179.6c3.8 12.5 16.3 54.6-8.3 40.3 0 0 10.2 6 16.9 28.7 6.6 22.6 23.3 25.5 23.3 25.5s26.8 5.1 46.7-11.8c17-14.4 19.7-40.1 12.5-59.5s-20.1-25.4-39-29.4c-18.8-4-56.2-7.6-52.1 6.2z"/><circle cx="369.1" cy="225.4" r="35.2"/><circle class="st4" cx="360.1" cy="209.7" r="9"/><path class="st1" d="M315.7 223.7s31.8 21.4 49 42.8 16.9 25.4 16.9 25.4l-12.2 5.4s-17.5-33.1-39.3-45.7c-21.8-12.5-24.5-23-24.5-23l10.1-4.9z"/><circle class="st5" cx="257.5" cy="422" r="8.3"/><circle class="st6" cx="260" cy="424.9" r="2.9"/><circle class="st5" cx="257.5" cy="434.9" r="5.6"/><circle class="st6" cx="259.2" cy="436.8" r="2"/><path class="st3" d="M259 210c-17.4.2-29.9 11.7-41.2 21.7-13.1 11.6-36.2 19.8-45.4 29.7-9.2 9.9-21.4 20.3-25.9 35.9-4.5 15.6-5.9 35.7-5.9 40.8 0 5.2.9 5.6-10.9 0-18.9-8.9-39.8-34-39.8-34 2.5 15.7 22.7 28.5 24.7 43.5 5.5 40.8 45.2 59.3 143 59.3h1.3"/><path class="st7" d="M352.5 278.6c-19.3-23.8-50.1-45.6-92.7-45.6h-.4c-42.6 0-73.4 21.8-92.7 45.6-19.9 24.2-18.6 34-18.6 57.3 0 84.1 29.5 59.2 49.2 69.3 20.1 9.9 40.6 5.9 62.1 5.9h.4c21.5 0 42 3.7 62.1-6.2 19.7-10.1 49.2 15.3 49.2-68.8 0-23.3 1.3-33.3-18.6-57.5z"/><path class="st8" d="M257.6 253.6s-2.7 38.6-8.5 46.2l10.4-2.5-1.9-43.7z"/><path class="st8" d="M260.3 253.6s2.7 38.6 8.5 46.2l-10.4-2.5 1.9-43.7z"/><path class="st7" d="M226.8 244.6c-4.1-9.2 10.2-24.2 33.1-24.2 22.8 0 37.2 15 33.1 24.2-4 9.4-18.6 12.5-33.1 12.7-14.5-.2-29-3.2-33.1-12.7z"/><path d="M260.2 253.6c-.1-1.7 13.7-1.9 20.8-6.8 0 0-14.9 4.7-18.1 2.9-3.3-1.8-3.9-6.5-4.2-6.5s-1 5-3.7 6.5-19.6-2.9-19.6-2.9 22.4 5.4 22.3 6.7c-.2 1.3-.2 5.1-.2 7.9 0 10 .2 34.9 1.5 36.8 2.5 3.7 1.5-26.8 1.5-36.8-.1-2.7-.2-6.1-.3-7.8z"/><path class="st9" d="M260.6 307.5c6.8 0 18.8 4.6 29.5 12.3-10.5-11.4-22.8-19.6-29.5-19.6-7.2 0-22.3 8.9-33.4 21.6 11.7-9 26-14.3 33.4-14.3z"/><path class="st8" d="M258.1 378c-15.3 0-30-4.8-43.5-8.3-2.9-.8-5.8 1.3-8.6.4-25.1-8-45.6-21.7-58.1-38.7 0 1.3.1 2.7.1 4.1 0 84.1 29.5 59.3 49.2 69.5 20.1 9.9 40.6 6 62.1 6h.4c21.5 0 42 3.7 62.1-6.2 19.7-10.1 49.2 15 49.2-69.1 0-3.2.1-6.2.3-9-11.7 18.6-32.8 33.8-59.3 42.7-2.5.8-7.9-1.3-10.5-.5-14.2 3.9-27 9.1-43.4 9.1z"/><path class="st8" d="M219.9 332.9s-10.1 30-3.2 43.2l-9.2-4.1s7.1-30.3 12.4-39.1zM299.3 332.9s10.1 30 3.2 43.2l9.2-4.1s-7.1-30.3-12.4-39.1z"/><path class="st3" d="M194.4 179.6c-3.8 12.5-16.3 54.6 8.3 40.3 0 0-10.2 6-16.9 28.7s-23.3 25.5-23.3 25.5-26.8 5.1-46.7-11.8c-17-14.4-19.7-40.1-12.5-59.5s20.1-25.4 39-29.4c18.8-4 56.3-7.6 52.1 6.2z"/><path d="M259.6 300.2c10.6 0 44.3 23.1 44.9 51.8 0-.5.1-1 .1-1.4 0-29.4-27.3-53.2-45-53.2s-45 23.8-45 53.2c0 .5.1 1 .1 1.4.6-28.8 34.2-51.8 44.9-51.8z"/><ellipse transform="rotate(-14.465 266.844 238.798)" class="st10" cx="266.9" cy="238.8" rx="3.3" ry="6.2"/><ellipse transform="rotate(17.235 249.48 238.77)" class="st10" cx="249.5" cy="238.8" rx="3.3" ry="6.2"/><circle cx="148.8" cy="225.4" r="35.2"/><circle class="st4" cx="157.8" cy="209.7" r="9"/><path class="st9" d="M270.1 225.7c0-.3-9.1 4-11.7 4.3-2.6-.4-11.7-4.6-11.7-4.3 0-.2 7.6-.1 11.7.1 4.1-.2 11.8-.2 11.7-.1z"/><path class="st1" d="M200.2 223.7s-31.8 21.4-49 42.8-16.9 25.4-16.9 25.4l12.2 5.4s17.5-33.1 39.3-45.7 24.5-23 24.5-23l-10.1-4.9z"/><path class="st3" d="M130.9 159.8s-10.6 29.5-34.8 42c.1 0 37.4-4.4 34.8-42zM383.1 159.8s10.6 29.5 34.8 42c0 0-37.4-4.4-34.8-42zM314.2 215.1s-23.3-24.9-55.1-25.5v-.1c-.2 0 .2 0 0 0v.1c-31 .6-55.2 25.5-55.2 25.5 27.5-19.3 53.2-18.8 55.2-18.7 0 0-.1 0 0 0 2.9-.2 27.6-.6 55.1 18.7zM286.6 162.9S274.9 146 259 145.6c-.1 0 .1 0 0 0-14 .4-27.6 17.3-27.6 17.3 13.8-13.1 27.6-12.8 27.6-12.7 3-.1 13.8-.4 27.6 12.7zM148.7 285.9s-18.9 9.3-32.3 3.7H116.7h.3c-14-6.9-18.4-27.1-18.4-27.1s11.3 35.5 50.1 23.4zM368 285.9s18.9 9.3 32.3 3.7h-.1 1.8c14-6.9 17.2-27.1 17.2-27.1S406.8 298 368 285.9zM258.9 175.3s.1 0 0 0z"/><path class="st3" d="M170.4 157.6c10.5-2.2 27.5-2.6 41.1 2.2 17.3 6 3.4 28 6.9 29.2 3.5 1.2 8.2-15.2 40.4-13.7s36.1 15.8 40.5 13.7-4.3-40.2 44.1-31.4c0 0-50.8-13.6-48.4 23.2 0 0-29-22.6-70-2.3.1 0 10.7-34.3-54.6-20.9zM347.7 157.7c.6.1 1.2.3 1.8.4 0 0-.6-.2-1.8-.4zM347.4 157.6c.1 0 .2 0 .3.1-.1-.1-.2-.1-.3-.1zM156.5 108.6s-43.2 54.3-49.7 75.3S95.7 291.8 90 304.1l-20.2-85.4 36.9-89.2 49.8-20.9zM359.6 108.6s43.2 54.3 49.7 75.3 11.1 107.9 16.8 120.2l20.2-85.4-36.9-89.2-49.8-20.9z"/><path class="st7" d="M357.5 108.6s46.4 38.8 59.8 83.6 7.9 99.2 18.4 106.2c14.8 9.8 31.6-47.4 37.2-53.6 8.7-9.5 38.1-34 40-38.4 1.9-4.4-59.2-71.1-86.1-84.3-31.9-15.6-71.9-17-69.3-13.5z"/><path class="st8" d="M397.2 132.5s54.8 70 53.8 157.1l21.9-44.8s-19.2-57.3-75.7-112.3z"/><path class="st7" d="M156.5 108.6s-46.4 38.8-59.8 83.6-7.9 99.2-18.4 106.2c-14.8 9.8-31.6-47.4-37.2-53.6-8.7-9.5-38.1-34-40-38.4-1.9-4.4 59.2-71.1 86.1-84.3 31.9-15.6 71.9-17 69.3-13.5z"/><path class="st8" d="M116.8 132.5S62 202.5 63 289.6l-21.9-44.8s19.2-57.3 75.7-112.3z"/><path class="st3" d="M87 291.4s3.8 21.7 10.5 28.5 2.1-5.2 2.1-5.2-6.6-3.6-5.5-31.3c1.1-27.8-7.1 8-7.1 8zM428.6 291.4s-3.8 21.7-10.5 28.5-2.1-5.2-2.1-5.2 6.6-3.6 5.5-31.3 7.1 8 7.1 8z"/><path class="st6" d="M283.8 457.1c3.1-1.6 5.4-4.5 6.1-8.1 1.1-6.2-3-12.1-9.2-13.2-5.7-1-11.1 2.4-12.8 7.8-7.5-2.2-15.3-3.5-23.1-4.1.3-5.6-3.6-10.7-9.3-11.8-6.2-1.1-12.1 3-13.2 9.2-.7 3.7.5 7.2 2.9 9.7-3.1 1.6-5.4 4.5-6.1 8.1-1.1 6.2 3 12.1 9.2 13.2 5.6 1 10.9-2.3 12.7-7.4 7.6 2.1 15.4 3.5 23.2 4.1-.1 5.5 3.8 10.4 9.3 11.4 6.2 1.1 12.1-3 13.2-9.2.6-3.6-.6-7.1-2.9-9.7z"/><path class="st5" d="M275.5 477.4c-.7 0-1.5-.1-2.2-.2-5.7-1-9.9-5.8-10.3-11.5-7.2-.7-14.4-2-21.4-3.8-2.3 5.2-7.9 8.2-13.6 7.2-6.8-1.2-11.3-7.7-10.1-14.5.6-3.4 2.6-6.4 5.5-8.2-2.1-2.8-2.9-6.2-2.3-9.6.6-3.3 2.4-6.1 5.2-8.1 2.7-1.9 6.1-2.6 9.3-2 5.8 1 10.1 6 10.3 11.8 7.2.6 14.3 1.9 21.2 3.8 2.2-5.4 7.9-8.6 13.7-7.5 3.3.6 6.1 2.4 8.1 5.2 1.9 2.7 2.6 6.1 2.1 9.3-.6 3.4-2.6 6.4-5.5 8.2 2.1 2.8 2.9 6.2 2.3 9.6-.6 3.3-2.4 6.1-5.2 8.1-2.1 1.4-4.5 2.2-7.1 2.2zm-35.3-18.3l1 .3c7.5 2.1 15.2 3.4 23 4.1l1.1.1v1.1c-.1 5 3.4 9.3 8.4 10.2 2.7.5 5.4-.1 7.6-1.7s3.7-3.9 4.2-6.6c.6-3.2-.4-6.4-2.6-8.7l-1.1-1.1 1.4-.7c2.9-1.5 4.9-4.1 5.5-7.3.5-2.7-.1-5.4-1.7-7.6-1.6-2.2-3.9-3.7-6.6-4.2-5-.9-10 2.1-11.5 7l-.3 1.1-1.1-.3c-7.4-2.1-15.1-3.5-22.8-4.1l-1.1-.1.1-1.1c.3-5.1-3.3-9.7-8.4-10.6-2.7-.5-5.4.1-7.6 1.7-2.2 1.6-3.7 3.9-4.2 6.6-.6 3.2.4 6.4 2.6 8.7l1.1 1.1-1.4.7c-2.9 1.5-4.9 4.1-5.5 7.3-1 5.5 2.7 10.8 8.2 11.8 4.9.9 9.7-1.9 11.4-6.7l.3-1z"/><circle class="st11" cx="236" cy="435.9" r="4.3"/><circle class="st11" cx="277.8" cy="466.9" r="4.3"/><circle class="st5" cx="254.5" cy="451.9" r="2.6"/><circle class="st5" cx="234" cy="448.8" r="2.6"/><circle class="st5" cx="275" cy="456" r="2.6"/><g><circle class="st8" cx="218.1" cy="274.8" r="3.1"/><circle class="st8" cx="199.7" cy="294.3" r="3.1"/><circle class="st8" cx="193.5" cy="274.8" r="3.1"/></g><g><circle class="st8" cx="295.9" cy="274.8" r="3.1"/><circle class="st8" cx="314.3" cy="294.3" r="3.1"/><circle class="st8" cx="320.5" cy="274.8" r="3.1"/></g><g><path class="st7" d="M589.4 51.1s-23.2 19.4-29.9 41.8c-6.7 22.4-3.9 49.6-9.2 53.1-7.4 4.9-15.8-23.7-18.6-26.8-4.3-4.7-19.1-17-20-19.2-1-2.2 29.6-35.6 43-42.1 16-7.8 36-8.5 34.7-6.8z"/></g></svg>