<svg xmlns="http://www.w3.org/2000/svg" height="533.783" width="715.729" viewBox="0 0 670.9822 500.41178"><path fill="none" d="M258.468 150.35h154.04v93.013h-154.04z"/><path d="M294.477 18.063s-3.036-2.08-8.204-2.898c-8.496-1.346-21.738-1.2-25.985 5.35-2.865 4.417 1.243 7.818 4.36 9.642 6.56 3.84 19.139 2.374 26.154.491 5.83-1.564 11.742-3.076 18.333-7.432 8.514-5.625 22.633-13.623 22.247-13.651 6.41-3.75 25.468-10.388 50.005-9.48 9.123.338 16.344.658 24.389 2.681 6.633 1.669 14.062 5.207 20.025 11.212 4.972 5.007 6.029 11.498 5.459 16.021-.912 7.231-6.483 12.4-15.827 15.867-14.18 5.261-28.965 4.164-37.88 3.906-25.569-2.167-31.419-19.436-10.385-22.065 10.337 21.466 65.487 4.719 38.503-8.499-15.673-7.2-46.97 1.145-46.97 1.145-10.411 3.958-23.146 10.051-36.107 17.488 0 0-7.408 4.943-20.799 7.166-4.136.686-8.48.93-13.71.917-3.428-.01-8.057-.34-11.981-1.218-34.35-7.682-26.68-25.661-26.68-25.661s0-8.99 19.01-11.931c11.398-1.764 19.374-1.054 24.099.566 3.045 1.043 4.066 2.06 5.298 3.356 2.967 3.118-3.255 7.062-3.355 7.028zM177.536 80.336c3.343 18.822 7.416 36.511 13.242 54.06-5.303 3.116-12.892 8.809-20.592 18.834-14.059 18.306-16.447 46.81-11.502 58.184 4.482 10.313 4.803 21.948 30.674 35.63 20.18 10.674 42.062.078 47.567-2.33-5.562.373-31.516-7.142-44.371-25.128-7.08-9.906-9.988-20.615-10.895-30.784-1.455-16.322 3.474-29.669 13.77-40.15l.356-.355a292.657 292.657 0 0 0 13.217 29.125l-.153-.004 38.024 55.243c7.555 15.027 9.82 23.098 11.503 30.4.193-.03 6.838 15.796 36.657 25.138 13.165 4.124 30.59 7.773 54.407 6.896 76.395-2.814 82.601-33.1 85.632-32.034 2.475-12.923 6.152-23.143 11.184-31.708l33.55-48.379 6.72-13.088c11.587-22.076 20.11-52.272 25.027-74.095 1.791-7.952 3.305-15.744 1.803-14.152-7.89 8.361-17.758 18.695-68.76 26.629-23.064 3.587-55.024 8.949-99.311 8.02-155.937-3.254-167.76-35.94-167.76-35.94zm59.39 164.38c2.003-.144 2.633-.622 1.64-.612-.215.003-.801.245-1.64.612zm-33.825-218.64s-18.852 13.074 1.278 25.17 50.805 16.343 50.805 16.343c25.606 5.872 75.955 8.096 126.849 6.21 11.334-.42 78.113-6.709 100.647-18.631 18.281-9.672 20.195-15.034 13.1-25.17 37.232 17.921 9.638 32.955-.638 37.918-6.03 3.142-16.84 6.422-31.314 9.807-32.207 9.263-69.662 11.813-108.64 12.421-42.286.594-86.442-1.974-136.44-14.383-17.87-6.041-40.146-10.186-43.774-27.13.854-11.535 14.825-16.96 28.118-22.555zM130.808 466.35c1.07 9.515-1.22 17.93-7.95 19.789-3.436.95-8.46-3-8.478-6.641-.037-7.113 10.237-11.5 16.428-13.147zm119.62-82.97c-.446-.002-.885.005-1.315.02-17.941 2.28-26.77 12.307-32.195 26.564-4.496 11.814-9.194 23.65-3.18 41.611 2.762 8.247 21.345 13.531 33.52 8.675 9.68-3.861 17.066-10.756 21.266-16.328a57.266 57.266 0 0 0 2.08 8.02c2.763 8.248 21.333 13.734 32.725 7.185 10.714-6.159 10.114-11.458 12.056-18.434-5.291 9.926-24.057 11.165-25.967 1.626-1.039-5.19-1.68-9.88.794-13.01 12.088.237 19.254-5.73 26.1-11.928 4.22-5.407 9.909-9.11 7.155-24.397-1.394-7.734-10.605-9.445-17.488-9.217-17.941 2.282-26.77 12.31-32.194 26.566-3.06 8.04-6.209 16.09-6.016 26.072-5.116 5.891-10.288 11.702-17.993 13.95-9.403 1.756-16.106.122-17.754-7.86-.642-5.257-1.15-10.424 1.325-13.556 12.088.238 19.254-5.73 26.1-11.927 4.22-5.407 9.908-9.11 7.154-24.396-1.307-7.25-9.483-9.207-16.172-9.236zm2.13 8.016c7.424.09 4.652 10.897 1.456 17.62-7.638 11.041-14.167 13.858-20.403 14.503 3.365-15.62 9.013-32.244 18.946-32.123zm56.865.367c7.425.09 4.654 10.897 1.458 17.62-7.638 11.041-14.167 13.858-20.403 14.503 3.365-15.62 9.012-32.244 18.945-32.123zm-95.952-45.528c-8.503-.097-17.589 4.747-20.829 10.88-2.272-10.252-14.662-10.54-14.614-10.734 0 0-17.582-1.36-25.107 16.484-9.172 21.751-7.146 44.387-11.617 44.086l-13.044 2.357c.233-.214.463-.364.667-.402-.117-8.935-1.646-16.257-4.98-20.234-5.403-6.441-12.427-7.43-24.937-4.052-4.998 1.35-9.082 5.137-12.695 8.408-5.165 4.678-10.206 14.948-11.712 19.29-5.383 20.433-3.185 18.976-4.684 24.918-.01.054-.017.122-.027.177-2.632 3.002-13.577 14.07-30.107 11.72-19.078-2.71-14.309-32.528-14.309-32.528-.517-2.44 6.088-60.488 30.208-62.348 9.13-.704 11.634 7.173 10.064 12.917-1.572 5.754-6.51 10.653-6.51 10.653 0 1.44 7.084 4.697 12.874 3.538 4.782-.957 12.188-24.94-4.24-31.988-5.133-2.203-10.164-2.975-14.654-2.997-9.878-.048-17.143 3.54-17.143 3.54s-19.297 4.408-31.39 45.211c-3.44 11.61-4.766 22.801-4.683 32.134.126 14.101 4.188 24.7 14.758 31.95 15.687 10.761 48.203-.814 56.018-15.058 1.484 14.161 20.151 24.125 37.193 12.426 5.962-3.718 10.75-8.26 13.848-13.98 4.55-8.4 5.923-20.255 6.616-27.682a3.2 3.2 0 0 1-.318-.116l14.124-2.87-10.118 48.687c.27-1.433-31.482 4.857-25.856 26.26 1.812 6.89 9.374 12.592 16.301 13.418 7.63.91 17.88-3.838 20.797-10.159 7.216 14.726 34.66 12.31 40.658-6.709l20.235-92.582 13.303-.191 1.874-4.984-14.427-.192c1.492-13.11 4.22-25.319 13.115-25.302 6.066.087 6.438 5.626 5.996 8.626h6.37c-.17-4.887 1.056-11.442-5.059-17.826-3.21-3.289-7.505-4.695-11.959-4.746zm-32.307 13.823c2.132 0 4.505 1.046 6.982 3.957 0 0-1.818 9.292-4.181 21.276H168.08l3.765-18.4s3.872-6.833 9.32-6.833zm-14.26 30.984h15.927c-3.64 18.398-8.436 42.393-12.55 62.028l-16.75 3.341zm2.72 65.14c-2.222 10.535-4.172 19.427-5.46 24.567-.998 3.978-7.017 7.637-11.404 6.765-2.192-.437-5.241-1.718-4.523-5.231l4.623-22.592zm-57.275-63.444c4.967-.042 4.722 8.527 4.224 8.272 0 0-10.845 8.47-.375 16.293.313 8.051-2.295 21.418-11.054 29.327-2.965 2.678-10.715 3.568-12.553-2.683-.248-.846-2.305-9.241.87-22.392 1.447-5.988 3.548-16.86 9.435-22.844 4.33-4.401 7.356-5.954 9.454-5.972zm555.63-31.405l-21.547 2.109-4.122 22.235-6.183.191-.75 5.559h5.621l-9.34 49.267c-.626 2.818-1.41 5.474-.59 9.77 1.102 5.771 6.995 11.748 12.741 11.885 7.14.17 13.835-8.064 16.488-13.993-3.397 1.714-10.17 1.157-9.368-3.067l10.305-54.246 8.431-.192 1.312-4.983h-7.682zm-78.13 40.636l-8.806 43.703c-1.078 5.352 8.865 6.223 15.176-1.15 5.84-6.821 7.376-11.03 10.305-26.644 1.645-10.105 1.945-18.796-4.684-22.043-4.03-1.974-9.299 1.21-11.991 6.134zm-17.05-23.194l-12.624 62.107c-2.629 3.947-5.748 7.468-10.235 7.856-6.98.472-10.304-2.982-7.307-13.226l10.118-50.22-20.048-.192-11.242 61.721c-1.305 7.162 4.611 14.31 15.926 14.568 9.226-.524 16.999-5.37 19.86-8.625l.55-.18-9.543 46.95 22.858-5.75 6.933-36.229c5.15 5.058 11.344 5.845 17.987 4.792 13.874-4.162 23.423-13.228 28.292-27.602 5.258-29.144 6.34-42.92-6.558-49.453-8.988-4.552-19.342-.655-25.294 4.409l1.312-10.542zm-14.03-14.16c0 6.563-5.2 11.883-11.617 11.883-6.416 0-11.617-5.32-11.617-11.884 0-6.563 5.2-11.884 11.617-11.884 6.416 0 11.617 5.32 11.617 11.884zm-113.51 17.967c-1.953 0-3.934.157-5.488.602-6.55 1.876-12.129 4.552-17.33 11.022-4.928 5.62-8.838 12.02-10.774 19.935-2.893 8.635-4.132 15.293-4.59 19.072-.271 7.41.154 12.334 1.873 16.676 3.38 8.533 8.265 9.725 13.96 11.501 13.011 1.183 23.516-2.265 26.452-5.184 4.221-1.815 7.836-5.122 14.3-11.78l.558-.276-3.463 16.857 20.985-.384 12.18-58.27c.836-4.004 7.145-5.672 11.053-4.793 1.869.42 4.496 1.934 4.785 6.447.197 3.066 3.39 2.2 4.958 2.562 3.514.814 8.282-2.52 8.993-6.134 1.184-6.01.681-13.906-9.93-15.334-5.606.536-11.882 2.855-17.987 9.01l2.061-8.626-21.547-.192-10.059 48.97-2.026 1.92c-3.525 4.508-8.596 8.719-16.113 12.46-5.15 2.226-10.589 2.496-16.488-.384-3.745-2.16-3.7-10.489-1.967-21.564 1.584-7.157 3.172-14.312 6.464-20.222 1.844-4.741 4.373-8.607 7.213-12.076 6.247-5.67 10.298-1.427 9.34 4.882-.699 4.605-3.594 9.657 5.666 7.762 11.628-9.35-.124-22.09-5.654-23.721-.992-.293-4.169-.736-7.424-.737zm-57.04-5.282c-2.78 3.467 9.254.56 12.321-1.626 5.689-4.054 6.428-11.551 3.18-18.298-4.12-8.555-13.045-11.313-23.053-11.385-14.441-.407-24.1 5.707-30.074 15.045-4.158 4.763-4.613 11.303-3.689 16.643 1.848 10.676 10.662 18.859 17.816 26.77 6.45 7.135 14.585 18.135 13.766 27.312-.83 6.694-3.012 14.574-9.477 19.543-4.782 3.674-15.982 5.734-22.92-5.286-3.155-5.011-1.193-11.095 1.05-15.731 2.243-4.636 9.582-8.252 14.186-7.988 2.408.138-.195-4.213-4.372-6.506-3.534-1.94-9.07-2.289-14.441.135-7.678 3.465-14.503 9.116-14.176 23.584.277 12.26 6.877 16.827 16.296 22.093 15.708 5.327 26.256 2.27 36.036-2.033 10.53-7.299 22.787-16.226 21.527-32.394.403-21.327-10.385-25.308-17.42-32.8-13.87-9.685-24.806-23.284-14.176-36.595 4.732-5.925 19.763-5.494 21.33 1.085 1.478 6.207.925 12.652-3.71 18.433z" fill-rule="evenodd" fill="#28334c"/></svg>