<svg xmlns="http://www.w3.org/2000/svg" width="297.45" height="419.877" viewBox="0 0 297.45 419.877"><path fill="#FC3" d="M27.07 386.156L0 82.536h297.45l-27.098 303.571-121.809 33.77z"/><path fill="#F8DC3D" d="M148.725 394.064l98.428-27.287 23.158-259.416H148.725z"/><g fill="#FFF"><path d="M148.93 209.97v37.237l45.853 10-4.322 48.293-41.531 11.211v38.742l76.34-21.158.558-6.291 9.658-98.034zM224.926 142.736l-76.34-21.158v38.742l76.381 21.518z"/></g><path fill="#EBEBEB" d="M149.059 209.97l-48.256 10 6.275-48.465 41.473-11.199.164.046v-38.744l-.172-.048-76.279 21.176-9.84 77.234h-.018l.006.079-.006.055h.012l3.309 37.103h.181l6.699 77.088 76.28 21.176.172-.049v-38.744l-.164.047-41.473-11.2-4.145-48.318 45.782-10z"/><g fill="#131313"><path d="M201.42 15.547h-24.688l25.674 27.859v13.26h-52.883V41.141h25.67l-25.67-27.86V0h51.897zM138.914 16.178V0H93.342v56.666h45.572V40.491h-26.639v-5.652h25.639V21.828h-25.639v-5.65z"/></g></svg>