<svg xmlns="http://www.w3.org/2000/svg" xmlns:xlink="http://www.w3.org/1999/xlink" viewBox="0 0 128 128"><defs><path id="a" d="M19.4 15h92v92h-92z"/></defs><clipPath id="b"><use xlink:href="#a" overflow="visible"/></clipPath><g clip-path="url(#b)"><defs><path id="c" d="M-83.7-887.6h2166.8v8454.5H-83.7z"/></defs><clipPath id="d"><use xlink:href="#c" overflow="visible"/></clipPath><g clip-path="url(#d)"><defs><path id="e" d="M93.2 33.6c16.8 16.5 17.1 43.5.6 60.3-16.5 16.8-43.5 17.1-60.3.6-16.8-16.5-17-43.5-.6-60.3 16.5-16.8 43.5-17.1 60.3-.6"/></defs><clipPath id="f"><use xlink:href="#e" overflow="visible"/></clipPath><g clip-path="url(#f)"><defs><path id="g" d="M19.4 15h92v92h-92z"/></defs><clipPath id="h"><use xlink:href="#g" overflow="visible"/></clipPath><path clip-path="url(#h)" fill="#FFDE44" d="M12.8 13.5h101.1v101.1H12.8z"/></g></g></g><g clip-path="url(#b)"><defs><path id="i" d="M-83.7-887.6h2166.8v8454.5H-83.7z"/></defs><clipPath id="j"><use xlink:href="#i" overflow="visible"/></clipPath><g clip-path="url(#j)"><defs><path id="k" d="M38.5 7.9L34.4 12l29.2 29.1-17 17-28.4-28.4-4.1 4.1 28.4 28.4L20 84.7l4.1 4.1 22.5-22.5 13.1 13.1-40.4 40.3 4.1 4.1 40.4-40.3L91 110.7l4.1-4.1-44.4-44.4 17-17L115.5 93l4.1-4.1-47.8-47.8 17.3-17.4-4-4.1L67.7 37 38.5 7.9"/></defs><clipPath id="l"><use xlink:href="#k" overflow="visible"/></clipPath><g clip-path="url(#l)"><defs><path id="m" d="M19.4 15h92v92h-92z"/></defs><clipPath id="n"><use xlink:href="#m" overflow="visible"/></clipPath><g clip-path="url(#n)"><defs><path id="o" d="M19.4 16.6h92V107h-92z"/></defs><clipPath id="p"><use xlink:href="#o" overflow="visible"/></clipPath><g clip-path="url(#p)"><defs><path id="q" d="M93.3 33.6c16.8 16.5 17.1 43.5.6 60.3-16.5 16.8-43.5 17.1-60.3.6C16.7 78 16.5 51 33 34.2c16.5-16.8 43.4-17.1 60.3-.6"/></defs><clipPath id="r"><use xlink:href="#q" overflow="visible"/></clipPath><g clip-path="url(#r)"><defs><path id="s" d="M19.4 15h92v92h-92z"/></defs><clipPath id="t"><use xlink:href="#s" overflow="visible"/></clipPath><path clip-path="url(#t)" fill="#EFEFEF" d="M12.8 13.5h101.1v101.1H12.8z"/></g></g></g></g></g></g><g clip-path="url(#b)"><defs><path id="u" d="M-83.7-887.6h2166.8v8454.5H-83.7z"/></defs><clipPath id="v"><use xlink:href="#u" overflow="visible"/></clipPath><g clip-path="url(#v)"><defs><path id="w" d="M18.4 86l24.1-24.2-21.3-21.3L18.4 86"/></defs><clipPath id="x"><use xlink:href="#w" overflow="visible"/></clipPath><g clip-path="url(#x)"><defs><path id="y" d="M19.4 15h92v92h-92z"/></defs><clipPath id="z"><use xlink:href="#y" overflow="visible"/></clipPath><g clip-path="url(#z)"><defs><path id="A" d="M19.4 40.4h23.8v46H19.4z"/></defs><clipPath id="B"><use xlink:href="#A" overflow="visible"/></clipPath><g clip-path="url(#B)"><defs><path id="C" d="M93.2 33.6c16.8 16.5 17.1 43.5.6 60.3-16.5 16.8-43.5 17.1-60.3.6-16.8-16.5-17-43.5-.6-60.3 16.5-16.8 43.5-17.1 60.3-.6"/></defs><clipPath id="D"><use xlink:href="#C" overflow="visible"/></clipPath><g clip-path="url(#D)"><defs><path id="E" d="M19.4 40.4h23.8v46H19.4z"/></defs><clipPath id="F"><use xlink:href="#E" overflow="visible"/></clipPath><path clip-path="url(#F)" fill="#20A362" d="M12.8 13.5h101.1v101.1H12.8z"/></g></g></g></g></g></g><g clip-path="url(#b)"><defs><path id="G" d="M-83.7-887.6h2166.8v8454.5H-83.7z"/></defs><clipPath id="H"><use xlink:href="#G" overflow="visible"/></clipPath><g clip-path="url(#H)"><defs><path id="I" d="M71.7 41.1L106 75.4l3.6-19s-9.4-27.6-9.7-27.8c-.3-.2-14.6-1.1-14.6-1.1L71.7 41.1"/></defs><clipPath id="J"><use xlink:href="#I" overflow="visible"/></clipPath><g clip-path="url(#J)"><defs><path id="K" d="M19.4 15h92v92h-92z"/></defs><clipPath id="L"><use xlink:href="#K" overflow="visible"/></clipPath><g clip-path="url(#L)"><defs><path id="M" d="M70.2 26.1h39.7v50.8H70.2z"/></defs><clipPath id="N"><use xlink:href="#M" overflow="visible"/></clipPath><g clip-path="url(#N)"><defs><path id="O" d="M93.3 33.7c16.8 16.5 17.1 43.5.6 60.3-16.5 16.8-43.5 17.1-60.3.6-16.8-16.5-17.1-43.5-.6-60.3 16.5-16.8 43.5-17.1 60.3-.6"/></defs><clipPath id="P"><use xlink:href="#O" overflow="visible"/></clipPath><g clip-path="url(#P)"><defs><path id="Q" d="M70.2 26.1h39.7v50.8H70.2z"/></defs><clipPath id="R"><use xlink:href="#Q" overflow="visible"/></clipPath><path clip-path="url(#R)" fill="#3F8CF4" d="M12.9 13.6H114v101.1H12.9z"/></g></g></g></g></g></g><g clip-path="url(#b)"><defs><path id="S" d="M-83.7-887.6h2166.8v8454.5H-83.7z"/></defs><clipPath id="T"><use xlink:href="#S" overflow="visible"/></clipPath><g clip-path="url(#T)"><defs><path id="U" d="M44.5 102.7l19.3-19.2 22.8 22.7-16.4 9.9-19.7 6.7-6-6.7-2-7.5 2-5.9"/></defs><clipPath id="V"><use xlink:href="#U" overflow="visible"/></clipPath><g clip-path="url(#V)"><defs><path id="W" d="M19.4 15h92v92h-92z"/></defs><clipPath id="X"><use xlink:href="#W" overflow="visible"/></clipPath><g clip-path="url(#X)"><defs><path id="Y" d="M41.6 83.2h46V107h-46z"/></defs><clipPath id="Z"><use xlink:href="#Y" overflow="visible"/></clipPath><g clip-path="url(#Z)"><defs><path id="aa" d="M93.3 33.7c16.8 16.5 17.1 43.5.6 60.3-16.5 16.8-43.5 17.1-60.3.6-16.8-16.5-17.1-43.5-.6-60.3 16.5-16.8 43.5-17.1 60.3-.6"/></defs><clipPath id="ab"><use xlink:href="#aa" overflow="visible"/></clipPath><g clip-path="url(#ab)"><defs><path id="ac" d="M41.6 83.2h46V107h-46z"/></defs><clipPath id="ad"><use xlink:href="#ac" overflow="visible"/></clipPath><path clip-path="url(#ad)" fill="#3F8CF4" d="M12.9 13.6H114v101.1H12.9z"/></g></g></g></g></g></g><g clip-path="url(#b)"><defs><path id="ae" d="M-83.7-887.6h2166.8v8454.5H-83.7z"/></defs><clipPath id="af"><use xlink:href="#ae" overflow="visible"/></clipPath><g clip-path="url(#af)"><defs><path id="ag" d="M56.7 71V17c0-.4.3-.8.8-.8h52.6c.4 0 .8.3.8.8v54c0 .4-.3.8-.8.8H57.5c-.4 0-.8-.4-.8-.8z"/></defs><clipPath id="ah"><use xlink:href="#ag" overflow="visible"/></clipPath><g clip-path="url(#ah)"><defs><path id="ai" d="M19.4 15h92v92h-92z"/></defs><clipPath id="aj"><use xlink:href="#ai" overflow="visible"/></clipPath><g clip-path="url(#aj)"><defs><path id="ak" d="M55.9 15h55.5v42.8H55.9z"/></defs><clipPath id="al"><use xlink:href="#ak" overflow="visible"/></clipPath><g clip-path="url(#al)"><defs><path id="am" d="M56.7 16.3h54.1v41.2H56.7z"/></defs><clipPath id="an"><use xlink:href="#am" overflow="visible"/></clipPath><g clip-path="url(#an)"><defs><path id="ao" d="M55.9 15h55.5v57.1H55.9z"/></defs><clipPath id="ap"><use xlink:href="#ao" overflow="visible"/></clipPath><path clip-path="url(#ap)" fill="#DC493C" d="M48.8 8.4h70v57h-70z"/></g></g><g clip-path="url(#al)"><defs><path id="aq" d="M56.7 16.3h54.1v8.3H56.7z"/></defs><clipPath id="ar"><use xlink:href="#aq" overflow="visible"/></clipPath><g clip-path="url(#ar)"><defs><path id="as" d="M55.9 15h55.5v57.1H55.9z"/></defs><clipPath id="at"><use xlink:href="#as" overflow="visible"/></clipPath><path clip-path="url(#at)" fill="#812A28" d="M48.8 8.4h70v24.1h-70z"/></g></g></g></g></g></g><g clip-path="url(#b)"><defs><path id="au" d="M-83.7-887.6h2166.8v8454.5H-83.7z"/></defs><clipPath id="av"><use xlink:href="#au" overflow="visible"/></clipPath><g clip-path="url(#av)"><defs><path id="aw" d="M77.3 31h3.3v13.6c0 1-.2 1.8-.5 2.6s-.8 1.4-1.3 1.9c-.6.5-1.2.9-2 1.2-.8.3-1.6.4-2.5.4-.9 0-1.8-.1-2.5-.3-.8-.2-1.4-.6-2-1.1-.6-.5-1-1.1-1.3-1.8-.3-.7-.5-1.6-.5-2.6h3.3c0 .6.1 1 .2 1.4.1.4.3.7.6 1 .3.2.6.4.9.5.4.1.8.2 1.2.2.4 0 .8-.1 1.2-.2.4-.1.7-.4.9-.6.3-.3.5-.6.6-1.1.1-.4.2-.9.2-1.4V31"/></defs><clipPath id="ax"><use xlink:href="#aw" overflow="visible"/></clipPath><g clip-path="url(#ax)"><defs><path id="ay" d="M19.4 15h92v92h-92z"/></defs><clipPath id="az"><use xlink:href="#ay" overflow="visible"/></clipPath><path clip-path="url(#az)" fill="#812A28" d="M60 23.1h28.5v35.5H60z"/></g></g></g><g clip-path="url(#b)"><defs><path id="aA" d="M-83.7-887.6h2166.8v8454.5H-83.7z"/></defs><clipPath id="aB"><use xlink:href="#aA" overflow="visible"/></clipPath><g clip-path="url(#aB)"><defs><path id="aC" d="M94.6 45.4c0-.4-.1-.7-.2-1-.1-.3-.3-.6-.6-.8-.3-.3-.7-.5-1.3-.7-.5-.2-1.2-.5-2.1-.7-.9-.3-1.8-.6-2.6-.9-.8-.4-1.5-.8-2-1.2-.6-.5-1-1-1.3-1.6-.3-.6-.5-1.3-.5-2.1s.2-1.5.5-2.2c.3-.7.8-1.2 1.4-1.7.6-.5 1.3-.9 2.2-1.1.8-.3 1.8-.4 2.8-.4 1.1 0 2.1.2 2.9.5.9.3 1.6.7 2.2 1.3.6.5 1.1 1.2 1.4 1.9.3.7.5 1.5.5 2.3h-3.3c0-.5-.1-.9-.2-1.3s-.4-.7-.7-1c-.3-.3-.7-.5-1.1-.7-.5-.2-1-.2-1.6-.2-.6 0-1.1.1-1.5.2-.4.1-.8.3-1.1.6-.3.2-.5.5-.6.9-.1.3-.2.7-.2 1.1 0 .7.3 1.3 1 1.8s1.7.9 3.1 1.3c1.1.3 2 .7 2.8 1.1.8.4 1.5.8 2 1.3s.9 1 1.2 1.7c.3.6.4 1.3.4 2.1s-.2 1.6-.5 2.2c-.3.7-.8 1.2-1.4 1.7-.6.5-1.3.8-2.2 1.1-.9.2-1.8.4-2.8.4-.9 0-1.8-.1-2.8-.4-.9-.3-1.7-.6-2.4-1.1-.7-.5-1.3-1.1-1.7-1.9-.4-.8-.7-1.7-.7-2.7H87c0 .6.1 1.1.3 1.6.2.4.5.8.9 1.1.4.3.8.5 1.3.6.5.1 1.1.2 1.7.2 1.2 0 2-.2 2.6-.7.5-1.2.8-1.9.8-2.6"/></defs><clipPath id="aD"><use xlink:href="#aC" overflow="visible"/></clipPath><g clip-path="url(#aD)"><defs><path id="aE" d="M19.4 15h92v92h-92z"/></defs><clipPath id="aF"><use xlink:href="#aE" overflow="visible"/></clipPath><path clip-path="url(#aF)" fill="#812A28" d="M75.5 22.8h30.3v35.7H75.5z"/></g></g></g></svg>