<svg width="512" height="512" xmlns="http://www.w3.org/2000/svg" display="block"><g fill-rule="evenodd"><path d="M99.414 37.288c1.611.168 4.248.168 5.859 0 1.612-.169.293-.307-2.929-.307-3.223 0-4.541.138-2.93.307M87.891 40.2C13.508 51.892-20.044 136.492 25.943 196.397c3.576 4.659 160.713 162.001 163.568 163.781 5.973 3.726 12.862 3.486 16.001-.556 1.056-1.36 1.035-1.362-.509-.052-.886.752-2.344 1.368-3.242 1.368-.897 0-1.748.351-1.891.781-.143.43-.17-59.296-.059-132.723l.202-133.505-15.827-15.456c-36.23-35.381-60.572-45.451-96.295-39.835m99.218 41.05c1.679 1.719 3.228 3.125 3.442 3.125.215 0-.982-1.406-2.66-3.125-1.679-1.719-3.228-3.125-3.442-3.125-.215 0 .982 1.406 2.66 3.125m109.963 41.797c.009 1.719.169 2.33.356 1.358.186-.972.179-2.378-.016-3.125-.196-.747-.349.048-.34 1.767m0 23.437c.009 1.719.169 2.33.356 1.358.186-.971.179-2.378-.016-3.125-.196-.746-.349.049-.34 1.767" fill="#dc4a3d"/><path d="M242.65 37.546c-12.639 3.154-20.295 11.909-34.308 39.231l-8.324 16.229-.014 133.966-.013 133.966h1.837c2.936-.001 2.42.966 44.495-83.257 42.106-84.287 43.614-87.634 47.289-105.025 14.398-68.123-14.318-144.254-50.962-135.11m-49.681 49.563c1.457 1.504 2.826 2.735 3.041 2.735.214 0-.802-1.231-2.26-2.735-1.458-1.504-2.826-2.734-3.041-2.734-.215 0 .802 1.23 2.26 2.734" fill="#ff9203"/><path d="M294.336 37.291c1.826.164 4.814.164 6.641 0 1.826-.165.332-.299-3.321-.299-3.652 0-5.146.134-3.32.299m-4.492 1.946c0 .229 2.157 1.223 4.794 2.209 48.434 18.113 67.614 100.862 35.713 154.079-5.502 9.179-121.05 162.891-122.929 163.531-.86.293-2.579 1.383-3.822 2.422l-2.259 1.889 2.259-.517c6.4-1.464 8.946-3.867 88.291-83.335 91.558-91.7 91.231-91.324 98.65-113.503 4.185-12.512 6.646-39.727 3.956-43.746-.288-.43-.952-3.029-1.477-5.775-6.968-36.457-38.189-67.413-75.699-75.057-7.446-1.518-27.477-3.119-27.477-2.197m-9.395 20.799c18.08 30.492 22.594 84.377 10.481 125.12-2.286 7.688-8.198 20.094-40.948 85.938-21.052 42.324-38.267 77.48-38.256 78.125.036 2.017 11.373-19.772 42.886-82.422 19.967-39.698 25.51-50.295 27.38-52.344 2.065-2.263 4.507-7.402 7.575-15.941 1.482-4.123 3.355-8.852 4.163-10.51.808-1.657 1.295-3.467 1.082-4.022-.213-.555-.006-1.245.46-1.533.466-.288.645-.851.398-1.251-.247-.4-.175-1.167.16-1.704.336-.537.676-1.328.756-1.758.08-.429.368-2.011.64-3.515a77.343 77.343 0 0 1 1.239-5.469c.948-3.479.914-5.682-.055-3.516-.456 1.021-.537.074-.231-2.734.256-2.363.762-4.673 1.123-5.134 3.393-4.32 2.678-57.815-.898-67.22-.435-1.145-.633-2.24-.439-2.434.195-.194-.12-1.696-.699-3.337-.579-1.641-.869-3.168-.644-3.393.225-.225.12-.872-.234-1.438s-.682-1.38-.729-1.81c-.488-4.483-1.944-6.639-10.217-15.128l-8.859-9.09 3.866 6.52" fill="#870e4f"/><path d="M284.83 38.268c.423.422 6.03.914 12.461 1.093 47.924 1.333 85.364 31.327 95.685 76.655.783 3.437 1.453 5.504 1.489 4.592.108-2.705-3.499-15.981-6.119-22.524-12.142-30.324-39.281-52.665-72.102-59.356-6.922-1.412-32.743-1.79-31.414-.46" fill="#a44879"/><path d="M270.508 37.278c1.181.179 3.115.179 4.297 0 1.181-.179.215-.325-2.149-.325-2.363 0-3.33.146-2.148.325m-5.274 2.493l-3.906.463 2.786 1.733c1.533.953 8.944 7.997 16.471 15.654 13.199 13.427 14.541 15.218 15.074 20.113.047.43.375 1.244.729 1.81.354.566.459 1.213.234 1.438-.225.225.065 1.752.644 3.393.579 1.641.894 3.143.699 3.337-.194.194.004 1.289.439 2.434 3.576 9.405 4.291 62.9.898 67.22-.361.461-.867 2.771-1.123 5.134-.306 2.808-.225 3.755.231 2.734.969-2.166 1.003.037.055 3.516a77.343 77.343 0 0 0-1.239 5.469c-.272 1.504-.56 3.086-.64 3.515-.08.43-.42 1.221-.756 1.758-.335.537-.407 1.304-.16 1.704.247.4.068.963-.398 1.251-.466.288-.673.978-.46 1.533.213.555-.274 2.365-1.082 4.022-.808 1.658-2.681 6.387-4.163 10.51-3.068 8.539-5.51 13.678-7.575 15.941-1.87 2.049-7.413 12.646-27.38 52.344-31.817 63.255-42.829 84.402-42.918 82.422-.028-.645-1.288 1.237-2.799 4.181-2.785 5.428-2.956 6.377-.999 5.554 1.629-.686 117.992-155.983 122.455-163.429 39.991-66.715-.44-163.423-65.117-155.754" fill="#c51262"/><path d="M93.75 37.314C52.685 40.392 12.477 75.73 6.657 113.858c-.247 1.616.449-.003 1.546-3.598C25.525 53.495 85.129 24.513 139.48 46.429c14.83 5.98 21.725 11.163 44.7 33.6C192.881 88.526 200 95.102 200 94.643c0-1.16-33.391-33.969-37.165-36.518-1.688-1.14-3.245-2.333-3.46-2.652-.215-.318-2.324-1.808-4.687-3.311-17.609-11.202-39.245-16.473-60.938-14.848m168.75.7c-.645.215-1.689.558-2.322.762-3.041.98 1.313 1.461 7.363.812 25.537-2.737 50.636 13.206 65.62 41.683 2.368 4.5 4.313 7.808 4.322 7.352.139-6.887-18.474-31.556-30.031-39.803-12.364-8.822-34.758-14.206-44.952-10.806" fill="#d34b88"/></g></svg>