<svg xmlns="http://www.w3.org/2000/svg" viewBox="0 0 1194 536"><path d="M0 0v536.699h1194.655V0H0z" fill="#1e2e3b"/><path d="M191.438 159.906l-5.25 7.219c-7.018 10.327-7.682 23.155-2.813 34.562 5.131 12.105 15.628 21.625 27.906 26.125.506.191 1.022.362 1.531.532l.688.218c.728.227 1.439.483 2.188.625 33.937 6.555 43.145-17.403 45.593-20.937-8.065 11.611-21.622 14.382-38.25 10.344-1.307-.315-2.741-.774-4-1.219a48.896 48.896 0 0 1-4.781-2 49.346 49.346 0 0 1-8.375-5.125c-14.876-11.288-24.142-32.806-14.438-50.344zm-38.5 8.406l-9.72 13.72c-11.905 17.13-11.25 40.068-1.968 58.187A76.69 76.69 0 0 0 146.5 249c1.785 2.554 3.793 5.606 6.156 7.656a82.17 82.17 0 0 0 2.656 2.781l.72.688a75.323 75.323 0 0 0 2.718 2.531l.094.094.03.031a83.341 83.341 0 0 0 3.188 2.625l.72.563a79.38 79.38 0 0 0 3.343 2.437l.094.094c.498.348 1.025.668 1.53 1l.72.469a65.24 65.24 0 0 0 2.468 1.5l.344.218c.72.413 1.451.823 2.188 1.22l.78.405c.51.263 1.018.527 1.532.782l.219.125c1.047.517 2.111.996 3.187 1.468l.72.282c.865.364 1.715.73 2.593 1.062.372.141.748.273 1.125.406.793.296 1.601.573 2.406.844.365.117.734.23 1.094.344 1.145.355 2.28.802 3.469 1 61.463 10.182 75.656-37.125 75.656-37.125-12.792 18.426-37.57 27.208-64 20.344a70.478 70.478 0 0 1-3.5-1l-1.031-.344a82.77 82.77 0 0 1-2.438-.844c-.368-.138-.729-.265-1.093-.406a72.877 72.877 0 0 1-2.625-1.062l-.72-.282a81.122 81.122 0 0 1-3.187-1.5 95.918 95.918 0 0 1-1.625-.812l-.906-.469a73.67 73.67 0 0 1-2.062-1.156l-.47-.281a75.395 75.395 0 0 1-2.468-1.5l-.75-.5a85.458 85.458 0 0 1-1.594-1.063c-1.136-.781-2.228-1.61-3.312-2.437l-.75-.563c-11.574-9.13-20.759-21.626-25.125-35.781-4.57-14.682-3.577-31.156 4.344-44.531zm-47.97 17.344L92.126 201.97c-16.463 23.658-14.417 54.449-1.844 79.593.3.599.626 1.19.938 1.782.198.38.36.757.562 1.125l.375.656c.215.4.438.768.656 1.156.397.692.81 1.379 1.22 2.063.226.376.425.748.655 1.125.458.732.933 1.463 1.407 2.187l.593.906c.66.98 1.344 1.944 2.032 2.907l.031.093.344.47a95.17 95.17 0 0 0 1.844 2.437l.687.875c.558.7 1.144 1.397 1.719 2.093l.625.782c.777.91 1.57 1.8 2.375 2.687l.062.063.094.093c.785.858 1.593 1.693 2.406 2.532l.75.781c.635.634 1.29 1.252 1.938 1.875l.781.75c.867.813 1.73 1.626 2.625 2.406l.063.032.437.406c.785.68 1.597 1.337 2.406 2l.969.781a84.924 84.924 0 0 0 2 1.563l1.063.812c.74.546 1.497 1.103 2.25 1.625l.812.563.219.156c.716.489 1.459.963 2.187 1.437l.938.625c1.12.708 2.256 1.418 3.406 2.094l.938.531c.846.486 1.673.973 2.53 1.438.466.252.969.476 1.438.719.607.32 1.194.625 1.813.937l.437.219.719.344c.959.457 1.93.91 2.906 1.343l.625.282a92.4 92.4 0 0 0 3.375 1.406l.813.312c1.056.405 2.12.814 3.187 1.188l.406.156c1.178.408 2.369.784 3.563 1.156l.844.25c1.214.37 2.405.8 3.656 1.032 79.61 14.52 102.75-47.844 102.75-47.844-19.416 25.305-53.896 31.993-86.563 24.562-1.238-.279-2.45-.678-3.656-1.03l-.906-.282c-1.178-.36-2.338-.723-3.5-1.125l-.469-.188a92.156 92.156 0 0 1-3.094-1.156l-.875-.344a102.715 102.715 0 0 1-3.343-1.375l-.688-.28c-.947-.43-1.874-.865-2.812-1.313l-.813-.407a72.994 72.994 0 0 1-2.156-1.093c-.49-.25-.987-.52-1.469-.782a104 104 0 0 1-2.625-1.468l-.875-.47a114.375 114.375 0 0 1-3.406-2.093l-.906-.625c-.814-.526-1.636-1.046-2.438-1.594l-.75-.562a90.666 90.666 0 0 1-2.312-1.656l-1-.75c-.692-.53-1.379-1.076-2.063-1.625l-.937-.75c-.87-.713-1.713-1.42-2.563-2.157l-.281-.218a145.143 145.143 0 0 1-2.719-2.47l-.75-.75a92.787 92.787 0 0 1-1.937-1.905l-.781-.75a102.06 102.06 0 0 1-2.376-2.532l-.124-.125c-.822-.901-1.617-1.82-2.407-2.75l-.625-.75c-.591-.708-1.179-1.434-1.75-2.156l-.625-.781a94.522 94.522 0 0 1-2.031-2.688c-18.134-24.735-24.652-58.86-10.156-86.875z" fill="#21ace2"/><path d="M497.25 141.719c-59.619 0-85.524 42.928-95.406 89.593-9.875 47.004 3.066 88.214 62.343 87.875l46.782-.156 43.687-.156c1.683-.014 3.415-1.346 3.844-2.969l7.625-29.062c.426-1.63-.63-2.962-2.313-2.969l-7.28-.031-7.313-.063c-1.433-.007-2.234-.926-2.063-2.156l.188-.688s16.497-40.09 20.25-63.25c5.11-31.003-10.39-75.968-70.344-75.968zm615.375 17.156l-9.625.062c-1.683.013-4.44.032-6.125.032h-25.469c-1.683 0-3.83 1.143-4.781 2.531l-56.344 82.5c-.95 1.396-2.03 1.202-2.406-.438l-4.125-18.187c-.372-1.647-2.067-2.969-3.75-2.969h-36.219c-1.687 0-2.676 1.32-2.219 2.938l16.22 56.843c.46 1.62.51 4.276.093 5.907l-7.094 27.5c-.421 1.64.628 2.968 2.313 2.968h35.781c1.68 0 3.427-1.329 3.844-2.968l7.062-27.5c.417-1.63 1.579-4.063 2.594-5.407l91.469-121.375c1.015-1.339.464-2.445-1.219-2.437zm-310.781 18.281c-58.934 0-72.885 35.773-80.719 71.875-7.835 36.798-7.17 71.188 53.812 71.188h9.688c2.413-.005 4.855-.023 7.312-.032h.125c16.107-.06 32.237-.192 38.782-.25 1.675-.024 3.312-1.365 3.656-3l2.469-12.062.5-2.344 2.937-14.406c.34-1.647-.781-3-2.469-3h-54.812c-21.804 0-28.29-5.779-25.906-22.813h87.718c1.392-.024 2.678-1.006 3.188-2.28l.219-.75h-.032c13.014-49.082 9.278-82.126-46.468-82.126zm-309.532 1.156c32.9-.945 39.359 23.52 31 51.625l-.843 2.938v.031l-6.594 23.438-6.625 23.437c-.46 1.619-2.219 2.969-3.906 2.969h-35c-26.568 0-33.065-20.787-26.594-51.438 6.466-31.347 19.161-50.838 45.312-52.812a70.15 70.15 0 0 1 3.25-.188zm-133.437.5c-1.683 0-3.378 1.362-3.75 3l-3.156 13.938-3.156 13.937c-.375 1.638.692 3 2.374 3h33.563c1.687 0 3.357-1.357 3.719-3l3.062-13.937 3.063-13.938c.36-1.647-.724-3-2.407-3h-33.312zm242.969.375c-1.685 0-3.347 1.358-3.688 3l-6.687 31.75-6.719 31.75v.032l-.625 2.968c-7.709 35.196-5.651 68.764 36.25 69.813.685.02 1.219 0 1.219 0h65.75c1.683 0 3.335-1.349 3.687-3l14.188-66.656 14.187-66.657c.348-1.647-.753-3-2.437-3h-30.313c-1.683 0-3.359 1.358-3.719 3l-10.75 49.782-10.78 49.812c-.356 1.643-2.008 3-3.688 3H636.25c-21.237 0-18.789-14.691-14.438-34.812l.125-.594.47-2.563.093-.468.969-5.157 1.031-5.53c.316-1.667.813-4.123 1.125-5.657l4.906-23.906 4.875-23.907c.336-1.647-.754-3-2.437-3h-31.125zm287.156.344c-1.683 0-3.37 1.353-3.719 3l-1.219 5.844-1.468 6.937-.407 1.938-12.625 59.125-12 56.156c-.355 1.647-.455 3.675-.25 4.5.204.822 3.41 1.469 5.094 1.469h25.313c1.687 0 3.8-.284 4.718-.656.92-.372 2.288-3.693 2.625-5.344l4.5-22.219 4.5-22.25V268l.594-2.969 5.469-25.562 4.812-22.563c.356-1.64 2.01-2.966 3.688-2.969l79.594-.03c1.678-.008 2.729-1.357 2.343-3l-1.375-5.75-1.375-5.876-.718-3c-2.727-10.594-10.718-16.687-28.094-16.687l-27.063-.032-24.906-.03H889zm-94.969 31c18.899 0 22.564 9.214 21.281 19.594-.225 1.808-1.887 3.156-3.562 3.156h-45.906c-1.587 0-2.423-1.079-2.188-2.406l.031-.094.032-.156s.066-.324.187-.781c4.386-11.66 13.339-19.313 30.125-19.313zm-445.093 11.656c-1.683 0-3.352 1.356-3.72 3l-4.718 20.875-4.719 20.875a474.211 474.211 0 0 0-1.312 6l-4.531 21.313-4.532 21.312c-.352 1.644-1.082 4.312-1.625 5.907 0 0-6.27 18.647-16.812 18.437-.446-.013-.876.009-1.313 0-5.1-.096-9.125-.187-9.125-.187-1.683-.024-3.361 1.302-3.75 2.937l-3.5 14.625-3.468 14.625c-.389 1.634.67 3 2.343 3.031 5.97.07 19.359.22 27.469.22 26.328 0 40.222-14.613 49.125-56.595l10.406-48.187 9.781-45.188c.36-1.644-.753-3-2.437-3h-33.562z" fill="#fff"/><path d="M607.74 350.89c-2.71 0-4.881.82-5.625 4.22-.681 3.396 1.09 4.218 3.875 4.218 2.72 0 4.883-.891 5.562-4.218.749-3.4-1.088-4.22-3.812-4.22zm70.531 1.22l-1.312 5.906 4.375 1.031-4.438 20.656-1.219 10.875h6.25l8.22-38.468H678.27zm148.219 0l-3.469 11.75s-4.22-1.563-7.344-1.563c-8.628 0-12 6.945-13.562 14.281-1.566 7.2-1.164 14.313 7.531 14.313 3.392 0 8.406-2.156 8.406-2.156l.813 1.75 5.719.093.75-3.625 7.406-34.843h-6.25zm-207.375 3.593l-2.594 7h-4.562l-1.282 5.938 4.344.937-2.156 10.407c-1.428 6.592-1.518 11 6.5 11 2.043 0 6.812-1.438 6.812-1.438l1.063-5.562h-5.219c-2.586 0-2.58-.833-1.969-3.75l2.25-10.594 7.813-.938 1.281-6h-7.625l1.5-7h-6.156zm28.781 6.688c-11.752 0-14.532 7.108-16.094 14.312-1.561 7.341-1.441 14.188 10.72 14.188 4.888 0 11.5-1.813 11.5-1.813l1.062-5.187h-10.907c-4.35 0-5.669-1.132-5.187-4.531h18c2.788-10.122 2.254-16.97-9.094-16.97zm58.156 0c-11.75 0-14.527 7.108-16.093 14.312-1.562 7.341-1.442 14.188 10.718 14.188 4.889 0 11.47-1.813 11.47-1.813l1.093-5.187h-10.938c-4.345 0-5.63-1.132-5.156-4.531h18c2.784-10.122 2.246-16.97-9.094-16.97zm286.47 0c-11.753 0-14.56 7.108-16.126 14.312-1.558 7.341-1.406 14.188 10.75 14.188 4.89 0 11.469-1.813 11.469-1.813l1.094-5.187H988.77c-4.35 0-5.626-1.132-5.156-4.531h18c2.788-10.122 2.245-16.97-9.094-16.97zm-96.126.062c-3.124 0-7 2.032-7 2.032l-.906-1.688h-5.688l-5.906 27.781h7.25l4.5-20.875h2.719c4.269 0 3.727 2.983 2.844 7.063l-.594 3.062-1.25 10.75h6.344l2.906-13.875c.543-2.514.949-4.895.812-7h3.344c4.281 0 3.73 2.983 2.844 7.063l-.625 3.062-1.219 10.75h6.313l2.937-13.875c1.562-7.204 1.81-14.25-6.875-14.25-2.788 0-6.64 1.694-8 2.438-.61-1.356-2.374-2.438-4.75-2.438zm-308.687.063c-3.254 0-6.563 1.969-6.563 1.969l-.75-1.625h-5.781l-.75 3.53-5.156 24.188h6.312l3.313-10.687 2.187-10.188h3.406c2.243 0 2.514.836 1.563 5.188h7.125c1.497-7.134 2.025-12.375-4.906-12.375zm146.656 0c-8.223 0-12.688 4.2-13.781 9.094-.744 3.597-.22 7.218-.22 7.218l14.407 1.063-.312 1.781c-.276 1.221-.896 2.438-5.375 2.438h-10.125l-1.157 5.375s6.578 1.562 10.657 1.562c8.218 0 12.778-4.487 13.656-8.906.615-2.648.531-7.344.531-7.344l-14.656-1.062.281-1.375c.336-1.497.818-2.907 5.438-2.907 2.17 0 10.093-.093 10.093-.093l1.22-5.344s-6.582-1.5-10.657-1.5zm27.312 0c-8.223 0-12.692 4.2-13.78 9.094-.745 3.597-.22 7.218-.22 7.218l14.407 1.063-.344 1.781c-.27 1.221-.865 2.438-5.344 2.438h-10.125l-1.156 5.375s6.585 1.562 10.656 1.562c8.223 0 12.777-4.487 13.656-8.906.615-2.648.532-7.344.532-7.344l-14.657-1.062.25-1.375c.344-1.497.82-2.907 5.438-2.907 2.173 0 10.125-.093 10.125-.093l1.219-5.344s-6.581-1.5-10.657-1.5zm87.625 0c-11.21 0-15.15 6.92-16.718 14.187-1.493 7.272-.585 14.282 10.625 14.282 11.206 0 15.126-6.876 16.687-14.282 1.566-7.267.544-14.187-10.594-14.187zm87.844 0c-11.21 0-15.157 6.92-16.719 14.187-1.492 7.272-.62 14.282 10.594 14.282 11.205 0 15.157-6.876 16.719-14.282 1.563-7.267.545-14.187-10.594-14.187zm31.719 0c-3.266 0-6.594 1.969-6.594 1.969l-.75-1.625h-5.75l-.781 3.53-5.156 24.188h6.312l3.344-10.687 2.187-10.188h3.375c2.238 0 2.514.836 1.563 5.188h7.125c1.492-7.134 2.049-12.375-4.875-12.375zm-437.656.281l-1.157 5.5.25 22.281h10.47l7.937-20.25-.875 20.25h10.812l9.781-22.281 1.157-5.5h-6.47l-8.155 22.281.75-22.281h-10.313l-8.219 22 1.438-22h-7.406zm65.812 0l-1.219 5.906 4.344.938-2.187 10.062-1.22 10.875h6.25l5.907-27.781h-11.875zm49.313 6.25c4.144 0 4.628 2.095 4.156 4.406l-10.469.875c.741-3.391 2.645-5.281 6.313-5.281zm58.156 0c4.144 0 4.624 2.095 4.156 4.406l-10.469.875c.749-3.391 2.638-5.281 6.313-5.281zm286.469 0c4.144 0 4.602 2.095 4.125 4.406l-10.438.875c.744-3.391 2.647-5.281 6.313-5.281zm-143.157.313c5.504 0 5.8 3.131 4.844 7.343-.943 4.488-2.595 7.407-8.031 7.407-5.228 0-5.632-2.99-4.75-7.407.95-4.347 2.644-7.343 7.937-7.343zm87.844 0c5.504 0 5.764 3.131 4.813 7.343-.947 4.488-2.566 7.407-8 7.407-5.23 0-5.632-2.99-4.75-7.407.952-4.347 2.636-7.343 7.937-7.343zm-119.625.28h5.719l-3.125 14.063h-5.656c-4.076 0-4.326-2.64-3.375-7.125.954-4.483 2.362-6.937 6.437-6.937zm193.469 12.97c-2.858 0-4.977.82-5.656 4.218-.744 3.33 1.017 4.157 3.875 4.157 2.65 0 4.84-.894 5.593-4.157.675-3.399-1.166-4.218-3.812-4.218zm-231.906.156c-2.784 0-4.908.791-5.657 4.187-.474 2.38.565 3.804 2.532 3.938l-.22 4.094h5.438l1.72-8.032c.739-3.396-1.097-4.187-3.813-4.187z" fill="#21ace2"/></svg>