<?xml version="1.0" encoding="utf-8"?>
<!-- Generator: Adobe Illustrator 20.0.0, SVG Export Plug-In . SVG Version: 6.00 Build 0)  -->
<svg version="1.1" id="Layer_1" xmlns="http://www.w3.org/2000/svg" xmlns:xlink="http://www.w3.org/1999/xlink" x="0px" y="0px"
	 viewBox="0 0 451.6 416.3" style="enable-background:new 0 0 451.6 416.3;" xml:space="preserve">
<style type="text/css">
	.st0{fill:#FFFCFB;}
</style>
<path class="st0" d="M355,416.3V265.9c0-37.8-14-63.5-49.1-63.5c-26.7,0-42.7,17.4-49.6,34.2c-2.6,6-3.2,14.4-3.2,22.8v156.9h-96.9
	c0,0,1.3-254.6,0-281H253v39.8c-0.2,0.3-0.4,0.6-0.6,0.9h0.6v-0.9c12.9-19.1,35.8-46.4,87.3-46.4c63.7,0,111.5,40.1,111.5,126.5
	v161.1H355z M54.1,96.9h-0.6C21,96.9,0,75.3,0,48.4C0,20.8,21.6-0.2,54.8-0.2c33.1,0,53.5,21,54.1,48.5
	C108.9,75.3,87.9,96.9,54.1,96.9z M102.5,416.3H5.7v-281h96.8V416.3z"/>
</svg>
