<?xml version="1.0" encoding="utf-8"?>
<!-- Generator: Adobe Illustrator 18.1.1, SVG Export Plug-In . SVG Version: 6.00 Build 0)  -->
<!DOCTYPE svg PUBLIC "-//W3C//DTD SVG 1.1//EN" "http://www.w3.org/Graphics/SVG/1.1/DTD/svg11.dtd">
<svg version="1.1" id="Layer_1" xmlns="http://www.w3.org/2000/svg" xmlns:xlink="http://www.w3.org/1999/xlink" x="0px" y="0px"
	 viewBox="0 0 128 128" enable-background="new 0 0 128 128" xml:space="preserve">
<g enable-background="new    ">
	<g>
		<defs>
			<rect id="SVGID_1_" x="19.4" y="15" width="92" height="92"/>
		</defs>
		<clipPath id="SVGID_2_">
			<use xlink:href="#SVGID_1_"  overflow="visible"/>
		</clipPath>
		<g clip-path="url(#SVGID_2_)">
			<defs>
				<rect id="SVGID_3_" x="-83.7" y="-887.6" width="2166.8" height="8454.5"/>
			</defs>
			<clipPath id="SVGID_4_">
				<use xlink:href="#SVGID_3_"  overflow="visible"/>
			</clipPath>
			<g clip-path="url(#SVGID_4_)">
				<defs>
					<path id="SVGID_5_" d="M93.2,33.6c16.8,16.5,17.1,43.5,0.6,60.3c-16.5,16.8-43.5,17.1-60.3,0.6C16.7,78,16.5,51,32.9,34.2
						C49.4,17.4,76.4,17.1,93.2,33.6"/>
				</defs>
				<clipPath id="SVGID_6_">
					<use xlink:href="#SVGID_5_"  overflow="visible"/>
				</clipPath>
				<g clip-path="url(#SVGID_6_)">
					<defs>
						<rect id="SVGID_7_" x="19.4" y="15" width="92" height="92"/>
					</defs>
					<clipPath id="SVGID_8_">
						<use xlink:href="#SVGID_7_"  overflow="visible"/>
					</clipPath>
					<rect x="12.8" y="13.5" clip-path="url(#SVGID_8_)" fill="#FFDE44" width="101.1" height="101.1"/>
				</g>
			</g>
		</g>
		<g clip-path="url(#SVGID_2_)">
			<defs>
				<rect id="SVGID_9_" x="-83.7" y="-887.6" width="2166.8" height="8454.5"/>
			</defs>
			<clipPath id="SVGID_10_">
				<use xlink:href="#SVGID_9_"  overflow="visible"/>
			</clipPath>
			<g clip-path="url(#SVGID_10_)">
				<defs>
					<polyline id="SVGID_11_" points="38.5,7.9 34.4,12 63.6,41.1 46.6,58.1 18.2,29.7 14.1,33.8 42.5,62.2 20,84.7 24.1,88.8 
						46.6,66.3 59.7,79.4 19.3,119.7 23.4,123.8 63.8,83.5 91,110.7 95.1,106.6 50.7,62.2 67.7,45.2 115.5,93 119.6,88.9 71.8,41.1 
						89.1,23.7 85.1,19.6 67.7,37 38.5,7.9 					"/>
				</defs>
				<clipPath id="SVGID_12_">
					<use xlink:href="#SVGID_11_"  overflow="visible"/>
				</clipPath>
				<g clip-path="url(#SVGID_12_)">
					<defs>
						<rect id="SVGID_13_" x="19.4" y="15" width="92" height="92"/>
					</defs>
					<clipPath id="SVGID_14_">
						<use xlink:href="#SVGID_13_"  overflow="visible"/>
					</clipPath>
					<g clip-path="url(#SVGID_14_)" enable-background="new    ">
						<g>
							<defs>
								<rect id="SVGID_15_" x="19.4" y="16.6" width="92" height="90.4"/>
							</defs>
							<clipPath id="SVGID_16_">
								<use xlink:href="#SVGID_15_"  overflow="visible"/>
							</clipPath>
							<g clip-path="url(#SVGID_16_)">
								<defs>
									<path id="SVGID_17_" d="M93.3,33.6c16.8,16.5,17.1,43.5,0.6,60.3c-16.5,16.8-43.5,17.1-60.3,0.6C16.7,78,16.5,51,33,34.2
										C49.5,17.4,76.4,17.1,93.3,33.6"/>
								</defs>
								<clipPath id="SVGID_18_">
									<use xlink:href="#SVGID_17_"  overflow="visible"/>
								</clipPath>
								<g clip-path="url(#SVGID_18_)">
									<defs>
										<rect id="SVGID_19_" x="19.4" y="15" width="92" height="92"/>
									</defs>
									<clipPath id="SVGID_20_">
										<use xlink:href="#SVGID_19_"  overflow="visible"/>
									</clipPath>
									<rect x="12.8" y="13.5" clip-path="url(#SVGID_20_)" fill="#EFEFEF" width="101.1" height="101.1"/>
								</g>
							</g>
						</g>
					</g>
				</g>
			</g>
		</g>
		<g clip-path="url(#SVGID_2_)">
			<defs>
				<rect id="SVGID_21_" x="-83.7" y="-887.6" width="2166.8" height="8454.5"/>
			</defs>
			<clipPath id="SVGID_22_">
				<use xlink:href="#SVGID_21_"  overflow="visible"/>
			</clipPath>
			<g clip-path="url(#SVGID_22_)">
				<defs>
					<polyline id="SVGID_23_" points="18.4,86 42.5,61.8 21.2,40.5 18.4,86 					"/>
				</defs>
				<clipPath id="SVGID_24_">
					<use xlink:href="#SVGID_23_"  overflow="visible"/>
				</clipPath>
				<g clip-path="url(#SVGID_24_)">
					<defs>
						<rect id="SVGID_25_" x="19.4" y="15" width="92" height="92"/>
					</defs>
					<clipPath id="SVGID_26_">
						<use xlink:href="#SVGID_25_"  overflow="visible"/>
					</clipPath>
					<g clip-path="url(#SVGID_26_)" enable-background="new    ">
						<g>
							<defs>
								<rect id="SVGID_27_" x="19.4" y="40.4" width="23.8" height="46"/>
							</defs>
							<clipPath id="SVGID_28_">
								<use xlink:href="#SVGID_27_"  overflow="visible"/>
							</clipPath>
							<g clip-path="url(#SVGID_28_)">
								<defs>
									<path id="SVGID_29_" d="M93.2,33.6c16.8,16.5,17.1,43.5,0.6,60.3c-16.5,16.8-43.5,17.1-60.3,0.6C16.7,78,16.5,51,32.9,34.2
										C49.4,17.4,76.4,17.1,93.2,33.6"/>
								</defs>
								<clipPath id="SVGID_30_">
									<use xlink:href="#SVGID_29_"  overflow="visible"/>
								</clipPath>
								<g clip-path="url(#SVGID_30_)">
									<defs>
										<rect id="SVGID_31_" x="19.4" y="40.4" width="23.8" height="46"/>
									</defs>
									<clipPath id="SVGID_32_">
										<use xlink:href="#SVGID_31_"  overflow="visible"/>
									</clipPath>
									<rect x="12.8" y="13.5" clip-path="url(#SVGID_32_)" fill="#20A362" width="101.1" height="101.1"/>
								</g>
							</g>
						</g>
					</g>
				</g>
			</g>
		</g>
		<g clip-path="url(#SVGID_2_)">
			<defs>
				<rect id="SVGID_33_" x="-83.7" y="-887.6" width="2166.8" height="8454.5"/>
			</defs>
			<clipPath id="SVGID_34_">
				<use xlink:href="#SVGID_33_"  overflow="visible"/>
			</clipPath>
			<g clip-path="url(#SVGID_34_)">
				<defs>
					<path id="SVGID_35_" d="M71.7,41.1l34.3,34.3l3.6-19c0,0-9.4-27.6-9.7-27.8c-0.3-0.2-14.6-1.1-14.6-1.1L71.7,41.1"/>
				</defs>
				<clipPath id="SVGID_36_">
					<use xlink:href="#SVGID_35_"  overflow="visible"/>
				</clipPath>
				<g clip-path="url(#SVGID_36_)">
					<defs>
						<rect id="SVGID_37_" x="19.4" y="15" width="92" height="92"/>
					</defs>
					<clipPath id="SVGID_38_">
						<use xlink:href="#SVGID_37_"  overflow="visible"/>
					</clipPath>
					<g clip-path="url(#SVGID_38_)" enable-background="new    ">
						<g>
							<defs>
								<rect id="SVGID_39_" x="70.2" y="26.1" width="39.7" height="50.8"/>
							</defs>
							<clipPath id="SVGID_40_">
								<use xlink:href="#SVGID_39_"  overflow="visible"/>
							</clipPath>
							<g clip-path="url(#SVGID_40_)">
								<defs>
									<path id="SVGID_41_" d="M93.3,33.7c16.8,16.5,17.1,43.5,0.6,60.3c-16.5,16.8-43.5,17.1-60.3,0.6
										C16.8,78.1,16.5,51.1,33,34.3C49.5,17.5,76.5,17.2,93.3,33.7"/>
								</defs>
								<clipPath id="SVGID_42_">
									<use xlink:href="#SVGID_41_"  overflow="visible"/>
								</clipPath>
								<g clip-path="url(#SVGID_42_)">
									<defs>
										<rect id="SVGID_43_" x="70.2" y="26.1" width="39.7" height="50.8"/>
									</defs>
									<clipPath id="SVGID_44_">
										<use xlink:href="#SVGID_43_"  overflow="visible"/>
									</clipPath>
									<rect x="12.9" y="13.6" clip-path="url(#SVGID_44_)" fill="#3F8CF4" width="101.1" height="101.1"/>
								</g>
							</g>
						</g>
					</g>
				</g>
			</g>
		</g>
		<g clip-path="url(#SVGID_2_)">
			<defs>
				<rect id="SVGID_45_" x="-83.7" y="-887.6" width="2166.8" height="8454.5"/>
			</defs>
			<clipPath id="SVGID_46_">
				<use xlink:href="#SVGID_45_"  overflow="visible"/>
			</clipPath>
			<g clip-path="url(#SVGID_46_)">
				<defs>
					<polyline id="SVGID_47_" points="44.5,102.7 63.8,83.5 86.6,106.2 70.2,116.1 50.5,122.8 44.5,116.1 42.5,108.6 44.5,102.7 
											"/>
				</defs>
				<clipPath id="SVGID_48_">
					<use xlink:href="#SVGID_47_"  overflow="visible"/>
				</clipPath>
				<g clip-path="url(#SVGID_48_)">
					<defs>
						<rect id="SVGID_49_" x="19.4" y="15" width="92" height="92"/>
					</defs>
					<clipPath id="SVGID_50_">
						<use xlink:href="#SVGID_49_"  overflow="visible"/>
					</clipPath>
					<g clip-path="url(#SVGID_50_)" enable-background="new    ">
						<g>
							<defs>
								<rect id="SVGID_51_" x="41.6" y="83.2" width="46" height="23.8"/>
							</defs>
							<clipPath id="SVGID_52_">
								<use xlink:href="#SVGID_51_"  overflow="visible"/>
							</clipPath>
							<g clip-path="url(#SVGID_52_)">
								<defs>
									<path id="SVGID_53_" d="M93.3,33.7c16.8,16.5,17.1,43.5,0.6,60.3c-16.5,16.8-43.5,17.1-60.3,0.6
										C16.8,78.1,16.5,51.1,33,34.3C49.5,17.5,76.5,17.2,93.3,33.7"/>
								</defs>
								<clipPath id="SVGID_54_">
									<use xlink:href="#SVGID_53_"  overflow="visible"/>
								</clipPath>
								<g clip-path="url(#SVGID_54_)">
									<defs>
										<rect id="SVGID_55_" x="41.6" y="83.2" width="46" height="23.8"/>
									</defs>
									<clipPath id="SVGID_56_">
										<use xlink:href="#SVGID_55_"  overflow="visible"/>
									</clipPath>
									<rect x="12.9" y="13.6" clip-path="url(#SVGID_56_)" fill="#3F8CF4" width="101.1" height="101.1"/>
								</g>
							</g>
						</g>
					</g>
				</g>
			</g>
		</g>
		<g clip-path="url(#SVGID_2_)">
			<defs>
				<rect id="SVGID_57_" x="-83.7" y="-887.6" width="2166.8" height="8454.5"/>
			</defs>
			<clipPath id="SVGID_58_">
				<use xlink:href="#SVGID_57_"  overflow="visible"/>
			</clipPath>
			<g clip-path="url(#SVGID_58_)">
				<defs>
					<path id="SVGID_59_" d="M56.7,71V17c0-0.4,0.3-0.8,0.8-0.8h52.6c0.4,0,0.8,0.3,0.8,0.8v54c0,0.4-0.3,0.8-0.8,0.8H57.5
						C57.1,71.8,56.7,71.4,56.7,71z"/>
				</defs>
				<clipPath id="SVGID_60_">
					<use xlink:href="#SVGID_59_"  overflow="visible"/>
				</clipPath>
				<g clip-path="url(#SVGID_60_)">
					<defs>
						<rect id="SVGID_61_" x="19.4" y="15" width="92" height="92"/>
					</defs>
					<clipPath id="SVGID_62_">
						<use xlink:href="#SVGID_61_"  overflow="visible"/>
					</clipPath>
					<g clip-path="url(#SVGID_62_)" enable-background="new    ">
						<g>
							<defs>
								<rect id="SVGID_63_" x="55.9" y="15" width="55.5" height="42.8"/>
							</defs>
							<clipPath id="SVGID_64_">
								<use xlink:href="#SVGID_63_"  overflow="visible"/>
							</clipPath>
							<g clip-path="url(#SVGID_64_)">
								<defs>
									<rect id="SVGID_65_" x="56.7" y="16.3" width="54.1" height="41.2"/>
								</defs>
								<clipPath id="SVGID_66_">
									<use xlink:href="#SVGID_65_"  overflow="visible"/>
								</clipPath>
								<g clip-path="url(#SVGID_66_)">
									<defs>
										<rect id="SVGID_67_" x="55.9" y="15" width="55.5" height="57.1"/>
									</defs>
									<clipPath id="SVGID_68_">
										<use xlink:href="#SVGID_67_"  overflow="visible"/>
									</clipPath>
									<rect x="48.8" y="8.4" clip-path="url(#SVGID_68_)" fill="#DC493C" width="70" height="57"/>
								</g>
							</g>
							<g clip-path="url(#SVGID_64_)">
								<defs>
									<rect id="SVGID_69_" x="56.7" y="16.3" width="54.1" height="8.3"/>
								</defs>
								<clipPath id="SVGID_70_">
									<use xlink:href="#SVGID_69_"  overflow="visible"/>
								</clipPath>
								<g clip-path="url(#SVGID_70_)">
									<defs>
										<rect id="SVGID_71_" x="55.9" y="15" width="55.5" height="57.1"/>
									</defs>
									<clipPath id="SVGID_72_">
										<use xlink:href="#SVGID_71_"  overflow="visible"/>
									</clipPath>
									<rect x="48.8" y="8.4" clip-path="url(#SVGID_72_)" fill="#812A28" width="70" height="24.1"/>
								</g>
							</g>
						</g>
					</g>
				</g>
			</g>
		</g>
		<g clip-path="url(#SVGID_2_)">
			<defs>
				<rect id="SVGID_73_" x="-83.7" y="-887.6" width="2166.8" height="8454.5"/>
			</defs>
			<clipPath id="SVGID_74_">
				<use xlink:href="#SVGID_73_"  overflow="visible"/>
			</clipPath>
			<g clip-path="url(#SVGID_74_)">
				<defs>
					<path id="SVGID_75_" d="M77.3,31h3.3v13.6c0,1-0.2,1.8-0.5,2.6c-0.3,0.8-0.8,1.4-1.3,1.9c-0.6,0.5-1.2,0.9-2,1.2
						c-0.8,0.3-1.6,0.4-2.5,0.4c-0.9,0-1.8-0.1-2.5-0.3c-0.8-0.2-1.4-0.6-2-1.1c-0.6-0.5-1-1.1-1.3-1.8c-0.3-0.7-0.5-1.6-0.5-2.6
						h3.3c0,0.6,0.1,1,0.2,1.4c0.1,0.4,0.3,0.7,0.6,1c0.3,0.2,0.6,0.4,0.9,0.5c0.4,0.1,0.8,0.2,1.2,0.2c0.4,0,0.8-0.1,1.2-0.2
						c0.4-0.1,0.7-0.4,0.9-0.6c0.3-0.3,0.5-0.6,0.6-1.1c0.1-0.4,0.2-0.9,0.2-1.4V31"/>
				</defs>
				<clipPath id="SVGID_76_">
					<use xlink:href="#SVGID_75_"  overflow="visible"/>
				</clipPath>
				<g clip-path="url(#SVGID_76_)">
					<defs>
						<rect id="SVGID_77_" x="19.4" y="15" width="92" height="92"/>
					</defs>
					<clipPath id="SVGID_78_">
						<use xlink:href="#SVGID_77_"  overflow="visible"/>
					</clipPath>
					<rect x="60" y="23.1" clip-path="url(#SVGID_78_)" fill="#812A28" width="28.5" height="35.5"/>
				</g>
			</g>
		</g>
		<g clip-path="url(#SVGID_2_)">
			<defs>
				<rect id="SVGID_79_" x="-83.7" y="-887.6" width="2166.8" height="8454.5"/>
			</defs>
			<clipPath id="SVGID_80_">
				<use xlink:href="#SVGID_79_"  overflow="visible"/>
			</clipPath>
			<g clip-path="url(#SVGID_80_)">
				<defs>
					<path id="SVGID_81_" d="M94.6,45.4c0-0.4-0.1-0.7-0.2-1c-0.1-0.3-0.3-0.6-0.6-0.8c-0.3-0.3-0.7-0.5-1.3-0.7
						c-0.5-0.2-1.2-0.5-2.1-0.7c-0.9-0.3-1.8-0.6-2.6-0.9c-0.8-0.4-1.5-0.8-2-1.2c-0.6-0.5-1-1-1.3-1.6c-0.3-0.6-0.5-1.3-0.5-2.1
						c0-0.8,0.2-1.5,0.5-2.2c0.3-0.7,0.8-1.2,1.4-1.7c0.6-0.5,1.3-0.9,2.2-1.1c0.8-0.3,1.8-0.4,2.8-0.4c1.1,0,2.1,0.2,2.9,0.5
						c0.9,0.3,1.6,0.7,2.2,1.3c0.6,0.5,1.1,1.2,1.4,1.9c0.3,0.7,0.5,1.5,0.5,2.3h-3.3c0-0.5-0.1-0.9-0.2-1.3c-0.1-0.4-0.4-0.7-0.7-1
						c-0.3-0.3-0.7-0.5-1.1-0.7c-0.5-0.2-1-0.2-1.6-0.2c-0.6,0-1.1,0.1-1.5,0.2c-0.4,0.1-0.8,0.3-1.1,0.6c-0.3,0.2-0.5,0.5-0.6,0.9
						c-0.1,0.3-0.2,0.7-0.2,1.1c0,0.7,0.3,1.3,1,1.8c0.7,0.5,1.7,0.9,3.1,1.3c1.1,0.3,2,0.7,2.8,1.1c0.8,0.4,1.5,0.8,2,1.3
						c0.5,0.5,0.9,1,1.2,1.7c0.3,0.6,0.4,1.3,0.4,2.1c0,0.8-0.2,1.6-0.5,2.2c-0.3,0.7-0.8,1.2-1.4,1.7c-0.6,0.5-1.3,0.8-2.2,1.1
						c-0.9,0.2-1.8,0.4-2.8,0.4c-0.9,0-1.8-0.1-2.8-0.4c-0.9-0.3-1.7-0.6-2.4-1.1c-0.7-0.5-1.3-1.1-1.7-1.9
						c-0.4-0.8-0.7-1.7-0.7-2.7h3.4c0,0.6,0.1,1.1,0.3,1.6c0.2,0.4,0.5,0.8,0.9,1.1c0.4,0.3,0.8,0.5,1.3,0.6
						c0.5,0.1,1.1,0.2,1.7,0.2c1.2,0,2-0.2,2.6-0.7C94.3,46.8,94.6,46.1,94.6,45.4"/>
				</defs>
				<clipPath id="SVGID_82_">
					<use xlink:href="#SVGID_81_"  overflow="visible"/>
				</clipPath>
				<g clip-path="url(#SVGID_82_)">
					<defs>
						<rect id="SVGID_83_" x="19.4" y="15" width="92" height="92"/>
					</defs>
					<clipPath id="SVGID_84_">
						<use xlink:href="#SVGID_83_"  overflow="visible"/>
					</clipPath>
					<rect x="75.5" y="22.8" clip-path="url(#SVGID_84_)" fill="#812A28" width="30.3" height="35.7"/>
				</g>
			</g>
		</g>
	</g>
</g>
</svg>
