<svg id="svg" version="1.1" width="512" height="512" xmlns="http://www.w3.org/2000/svg" xmlns:xlink="http://www.w3.org/1999/xlink" style="display: block;"><g id="svgg"><path id="path0" d="M99.414 37.288 C 101.025 37.456,103.662 37.456,105.273 37.288 C 106.885 37.119,105.566 36.981,102.344 36.981 C 99.121 36.981,97.803 37.119,99.414 37.288 M87.891 40.200 C 13.508 51.892,-20.044 136.492,25.943 196.397 C 29.519 201.056,186.656 358.398,189.511 360.178 C 195.484 363.904,202.373 363.664,205.512 359.622 C 206.568 358.262,206.547 358.260,205.003 359.570 C 204.117 360.322,202.659 360.938,201.761 360.938 C 200.864 360.938,200.013 361.289,199.870 361.719 C 199.727 362.149,199.700 302.423,199.811 228.996 L 200.013 95.491 184.186 80.035 C 147.956 44.654,123.614 34.584,87.891 40.200 M187.109 81.250 C 188.788 82.969,190.337 84.375,190.551 84.375 C 190.766 84.375,189.569 82.969,187.891 81.250 C 186.212 79.531,184.663 78.125,184.449 78.125 C 184.234 78.125,185.431 79.531,187.109 81.250 M297.072 123.047 C 297.081 124.766,297.241 125.377,297.428 124.405 C 297.614 123.433,297.607 122.027,297.412 121.280 C 297.216 120.533,297.063 121.328,297.072 123.047 M297.072 146.484 C 297.081 148.203,297.241 148.814,297.428 147.842 C 297.614 146.871,297.607 145.464,297.412 144.717 C 297.216 143.971,297.063 144.766,297.072 146.484 " stroke="none" fill="#dc4a3d" fill-rule="evenodd"></path><path id="path1" d="M242.650 37.546 C 230.011 40.700,222.355 49.455,208.342 76.777 L 200.018 93.006 200.004 226.972 L 199.991 360.938 201.828 360.938 C 204.764 360.937,204.248 361.904,246.323 277.681 C 288.429 193.394,289.937 190.047,293.612 172.656 C 308.010 104.533,279.294 28.402,242.650 37.546 M192.969 87.109 C 194.426 88.613,195.795 89.844,196.010 89.844 C 196.224 89.844,195.208 88.613,193.750 87.109 C 192.292 85.605,190.924 84.375,190.709 84.375 C 190.494 84.375,191.511 85.605,192.969 87.109 " stroke="none" fill="#ff9203" fill-rule="evenodd"></path><path id="path2" d="M294.336 37.291 C 296.162 37.455,299.150 37.455,300.977 37.291 C 302.803 37.126,301.309 36.992,297.656 36.992 C 294.004 36.992,292.510 37.126,294.336 37.291 M289.844 39.237 C 289.844 39.466,292.001 40.460,294.638 41.446 C 343.072 59.559,362.252 142.308,330.351 195.525 C 324.849 204.704,209.301 358.416,207.422 359.056 C 206.562 359.349,204.843 360.439,203.600 361.478 L 201.341 363.367 203.600 362.850 C 210.000 361.386,212.546 358.983,291.891 279.515 C 383.449 187.815,383.122 188.191,390.541 166.012 C 394.726 153.500,397.187 126.285,394.497 122.266 C 394.209 121.836,393.545 119.237,393.020 116.491 C 386.052 80.034,354.831 49.078,317.321 41.434 C 309.875 39.916,289.844 38.315,289.844 39.237 M280.449 60.036 C 298.529 90.528,303.043 144.413,290.930 185.156 C 288.644 192.844,282.732 205.250,249.982 271.094 C 228.930 313.418,211.715 348.574,211.726 349.219 C 211.762 351.236,223.099 329.447,254.612 266.797 C 274.579 227.099,280.122 216.502,281.992 214.453 C 284.057 212.190,286.499 207.051,289.567 198.512 C 291.049 194.389,292.922 189.660,293.730 188.002 C 294.538 186.345,295.025 184.535,294.812 183.980 C 294.599 183.425,294.806 182.735,295.272 182.447 C 295.738 182.159,295.917 181.596,295.670 181.196 C 295.423 180.796,295.495 180.029,295.830 179.492 C 296.166 178.955,296.506 178.164,296.586 177.734 C 296.666 177.305,296.954 175.723,297.226 174.219 C 297.497 172.715,298.055 170.254,298.465 168.750 C 299.413 165.271,299.379 163.068,298.410 165.234 C 297.954 166.255,297.873 165.308,298.179 162.500 C 298.435 160.137,298.941 157.827,299.302 157.366 C 302.695 153.046,301.980 99.551,298.404 90.146 C 297.969 89.001,297.771 87.906,297.965 87.712 C 298.160 87.518,297.845 86.016,297.266 84.375 C 296.687 82.734,296.397 81.207,296.622 80.982 C 296.847 80.757,296.742 80.110,296.388 79.544 C 296.034 78.978,295.706 78.164,295.659 77.734 C 295.171 73.251,293.715 71.095,285.442 62.606 L 276.583 53.516 280.449 60.036 " stroke="none" fill="#870e4f" fill-rule="evenodd"></path><path id="path3" d="M284.830 38.268 C 285.253 38.690,290.860 39.182,297.291 39.361 C 345.215 40.694,382.655 70.688,392.976 116.016 C 393.759 119.453,394.429 121.520,394.465 120.608 C 394.573 117.903,390.966 104.627,388.346 98.084 C 376.204 67.760,349.065 45.419,316.244 38.728 C 309.322 37.316,283.501 36.938,284.830 38.268 " stroke="none" fill="#a44879" fill-rule="evenodd"></path><path id="path4" d="M270.508 37.278 C 271.689 37.457,273.623 37.457,274.805 37.278 C 275.986 37.099,275.020 36.953,272.656 36.953 C 270.293 36.953,269.326 37.099,270.508 37.278 M265.234 39.771 L 261.328 40.234 264.114 41.967 C 265.647 42.920,273.058 49.964,280.585 57.621 C 293.784 71.048,295.126 72.839,295.659 77.734 C 295.706 78.164,296.034 78.978,296.388 79.544 C 296.742 80.110,296.847 80.757,296.622 80.982 C 296.397 81.207,296.687 82.734,297.266 84.375 C 297.845 86.016,298.160 87.518,297.965 87.712 C 297.771 87.906,297.969 89.001,298.404 90.146 C 301.980 99.551,302.695 153.046,299.302 157.366 C 298.941 157.827,298.435 160.137,298.179 162.500 C 297.873 165.308,297.954 166.255,298.410 165.234 C 299.379 163.068,299.413 165.271,298.465 168.750 C 298.055 170.254,297.497 172.715,297.226 174.219 C 296.954 175.723,296.666 177.305,296.586 177.734 C 296.506 178.164,296.166 178.955,295.830 179.492 C 295.495 180.029,295.423 180.796,295.670 181.196 C 295.917 181.596,295.738 182.159,295.272 182.447 C 294.806 182.735,294.599 183.425,294.812 183.980 C 295.025 184.535,294.538 186.345,293.730 188.002 C 292.922 189.660,291.049 194.389,289.567 198.512 C 286.499 207.051,284.057 212.190,281.992 214.453 C 280.122 216.502,274.579 227.099,254.612 266.797 C 222.795 330.052,211.783 351.199,211.694 349.219 C 211.666 348.574,210.406 350.456,208.895 353.400 C 206.110 358.828,205.939 359.777,207.896 358.954 C 209.525 358.268,325.888 202.971,330.351 195.525 C 370.342 128.810,329.911 32.102,265.234 39.771 " stroke="none" fill="#c51262" fill-rule="evenodd"></path><path id="path5" d="M93.750 37.314 C 52.685 40.392,12.477 75.730,6.657 113.858 C 6.410 115.474,7.106 113.855,8.203 110.260 C 25.525 53.495,85.129 24.513,139.480 46.429 C 154.310 52.409,161.205 57.592,184.180 80.029 C 192.881 88.526,200.000 95.102,200.000 94.643 C 200.000 93.483,166.609 60.674,162.835 58.125 C 161.147 56.985,159.590 55.792,159.375 55.473 C 159.160 55.155,157.051 53.665,154.688 52.162 C 137.079 40.960,115.443 35.689,93.750 37.314 M262.500 38.014 C 261.855 38.229,260.811 38.572,260.178 38.776 C 257.137 39.756,261.491 40.237,267.541 39.588 C 293.078 36.851,318.177 52.794,333.161 81.271 C 335.529 85.771,337.474 89.079,337.483 88.623 C 337.622 81.736,319.009 57.067,307.452 48.820 C 295.088 39.998,272.694 34.614,262.500 38.014 " stroke="none" fill="#d34b88" fill-rule="evenodd"></path></g></svg>