<svg version="1" xmlns="http://www.w3.org/2000/svg" width="1920" height="1920" viewBox="0 0 1440.000000 1440.000000"><path d="M700.5 59.7c-189 5.6-366.1 91.6-487.5 236.8-82 98-134.4 219.8-148.9 346-3.3 28.6-4.3 46.8-4.3 77 0 78.2 12.6 151.1 38.9 224 62.1 172 193.1 310.8 361.4 382.9 68 29 138 45.9 214.9 51.7 16.8 1.2 68.3 1.6 82 .5 46.1-3.6 75-7.8 109.5-15.7 162.9-37.4 306.3-135.4 399.1-272.9 89.4-132.4 127.7-289.1 109.3-447.5-8.8-76.5-31.1-150.4-66.4-220.4-102.8-203.8-303.5-339.9-531-360-22.4-2-55.4-3-77-2.4zM657 315.4c33.7 7.9 59.6 23.2 80.2 47.6 22 26.1 33.8 58.3 33.8 92.5s-11.8 66.4-33.8 92.5c-17 20-38 34.3-62.3 42.4-22 7.3-16.6 6.9-106.6 7.3l-81.3.4V312.9l81.3.4c73.2.3 81.9.5 88.7 2.1zM709 600c35.2 3.1 64.5 11.3 96.5 27 51.8 25.5 93 66.7 118.5 118.5 9 18.3 13.7 30.5 18.5 48 14 51 12.1 104.9-5.5 155.8-42.4 123.1-170.3 196.8-298.3 172.1-106.1-20.5-188.6-103-209.1-209.1-21.5-111.5 31.6-224.9 131.2-280.2 44.4-24.6 98.7-36.4 148.2-32.1z"/></svg>